<svg width="45" height="50" viewBox="0 0 45 50" fill="none" xmlns="http://www.w3.org/2000/svg">
<path d="M26.1343 39.082H11.9707C11.5005 39.082 11.1182 39.5068 11.1182 40.0293C11.1182 40.5518 11.5005 40.9766 11.9707 40.9766H26.1343C26.6045 40.9766 26.9868 40.5518 26.9868 40.0293C26.9868 39.502 26.6045 39.082 26.1343 39.082Z" fill="#005BFF"/>
<path d="M40.1177 37.666V39.5703H42.5391C42.1831 38.4619 41.2339 37.666 40.1177 37.666Z" fill="#E6E6E6"/>
<path d="M35.8418 33.0029V11.4844C35.8418 10.6982 35.2661 10.0635 34.563 10.0635H3.54199C2.83447 10.0635 2.26318 10.7031 2.26318 11.4844V33.0029C2.26318 33.7891 2.83887 34.4238 3.54199 34.4238H34.563C35.2705 34.4287 35.8418 33.7891 35.8418 33.0029ZM33.9126 30.9521C33.9126 31.7334 33.3369 32.373 32.6338 32.373H5.47559C4.77246 32.373 4.19678 31.7334 4.19678 30.9521V13.54C4.19678 12.7588 4.77246 12.1191 5.47559 12.1191H32.6338C33.3369 12.1191 33.9126 12.7588 33.9126 13.54V30.9521Z" fill="white"/>
<path d="M32.6338 12.1191H5.47559C4.77246 12.1191 4.19678 12.7588 4.19678 13.54V30.9521C4.19678 31.7334 4.77246 32.373 5.47559 32.373H32.6338C33.3369 32.373 33.9126 31.7334 33.9126 30.9521V13.54C33.9126 12.7588 33.3369 12.1191 32.6338 12.1191ZM9.63721 13.6914C9.63721 13.6133 9.69434 13.5547 9.76025 13.5547H12.4541C12.5244 13.5547 12.5771 13.6182 12.5771 13.6914V14.5459C12.5771 14.624 12.52 14.6826 12.4541 14.6826H9.76025C9.68994 14.6826 9.63721 14.6191 9.63721 14.5459V13.6914ZM8.30566 13.5205C8.5957 13.5205 8.82861 13.7793 8.82861 14.1016C8.82861 14.4238 8.5957 14.6826 8.30566 14.6826C8.01563 14.6826 7.78272 14.4238 7.78272 14.1016C7.78272 13.7793 8.02002 13.5205 8.30566 13.5205ZM6.5918 13.5205C6.88184 13.5205 7.11475 13.7793 7.11475 14.1016C7.11475 14.4238 6.88184 14.6826 6.5918 14.6826C6.30176 14.6826 6.06885 14.4238 6.06885 14.1016C6.06885 13.7793 6.30176 13.5205 6.5918 13.5205ZM17.02 22.3926C17.02 25.7031 14.5942 28.3984 11.6147 28.3984C8.63525 28.3984 6.20947 25.7031 6.20947 22.3926C6.20947 19.082 8.63525 16.3867 11.6147 16.3867H12.041V21.9189H17.02V22.3926ZM13.0605 20.5029V15.8789C15.3589 15.8789 17.2222 17.9492 17.2222 20.5029H13.0605ZM29.4785 27.7734H23.2954C23.0581 27.7734 22.8691 27.5635 22.8691 27.2998C22.8691 27.0361 23.0581 26.8262 23.2954 26.8262H29.4785C29.7158 26.8262 29.9048 27.0361 29.9048 27.2998C29.9048 27.5586 29.7158 27.7734 29.4785 27.7734ZM29.4785 24.1943H23.0801C22.8428 24.1943 22.6538 23.9844 22.6538 23.7207C22.6538 23.457 22.8428 23.2471 23.0801 23.2471H29.4785C29.7158 23.2471 29.9048 23.457 29.9048 23.7207C29.9048 23.9844 29.7158 24.1943 29.4785 24.1943ZM29.4785 20.6104H20.2676C20.0303 20.6104 19.8413 20.4004 19.8413 20.1367C19.8413 19.873 20.0303 19.6631 20.2676 19.6631H29.4829C29.7202 19.6631 29.9092 19.873 29.9092 20.1367C29.9092 20.4004 29.7158 20.6104 29.4785 20.6104ZM29.4785 17.0312H20.2676C20.0303 17.0312 19.8413 16.8213 19.8413 16.5576C19.8413 16.2939 20.0303 16.084 20.2676 16.084H29.4829C29.7202 16.084 29.9092 16.2939 29.9092 16.5576C29.9092 16.8213 29.7158 17.0312 29.4785 17.0312Z" fill="#E6E6E6"/>
<path d="M11.1885 17.3584C8.87695 17.5977 7.06201 19.7656 7.06201 22.3926C7.06201 25.1807 9.10547 27.4512 11.6147 27.4512C13.979 27.4512 15.9302 25.4346 16.1455 22.8662H11.1885V17.3584Z" fill="white"/>
<path d="M12.041 16.3867H11.6147C8.63525 16.3867 6.20947 19.082 6.20947 22.3926C6.20947 25.7031 8.63525 28.3984 11.6147 28.3984C14.5942 28.3984 17.02 25.7031 17.02 22.3926V21.9189H12.041V16.3867ZM16.1455 22.8711C15.9302 25.4395 13.979 27.4561 11.6147 27.4561C9.10547 27.4561 7.06201 25.1855 7.06201 22.3975C7.06201 19.7705 8.87695 17.6025 11.1885 17.3633V22.8711H16.1455Z" fill="#005BFF"/>
<path d="M13.0605 15.8789V20.5029H17.2222C17.2222 17.9492 15.3589 15.8789 13.0605 15.8789Z" fill="#005BFF"/>
<path d="M6.06885 14.1016C6.06885 14.2557 6.12394 14.4035 6.22202 14.5124C6.32009 14.6214 6.4531 14.6826 6.5918 14.6826C6.73049 14.6826 6.86351 14.6214 6.96158 14.5124C7.05965 14.4035 7.11475 14.2557 7.11475 14.1016C7.11475 13.9475 7.05965 13.7997 6.96158 13.6907C6.86351 13.5817 6.73049 13.5205 6.5918 13.5205C6.4531 13.5205 6.32009 13.5817 6.22202 13.6907C6.12394 13.7997 6.06885 13.9475 6.06885 14.1016Z" fill="white"/>
<path d="M7.78271 14.1016C7.78271 14.2557 7.83781 14.4035 7.93588 14.5124C8.03396 14.6214 8.16697 14.6826 8.30566 14.6826C8.44436 14.6826 8.57737 14.6214 8.67544 14.5124C8.77352 14.4035 8.82861 14.2557 8.82861 14.1016C8.82861 13.9475 8.77352 13.7997 8.67544 13.6907C8.57737 13.5817 8.44436 13.5205 8.30566 13.5205C8.16697 13.5205 8.03396 13.5817 7.93588 13.6907C7.83781 13.7997 7.78271 13.9475 7.78271 14.1016Z" fill="white"/>
<path d="M9.76025 14.6826H12.4541C12.5244 14.6826 12.5771 14.6191 12.5771 14.5459V13.6914C12.5771 13.6133 12.52 13.5547 12.4541 13.5547H9.76025C9.68994 13.5547 9.63721 13.6182 9.63721 13.6914V14.5459C9.63721 14.624 9.69434 14.6826 9.76025 14.6826Z" fill="white"/>
<path d="M40.1177 35.7666C38.0522 35.7666 36.3252 37.4023 35.9297 39.5654H30.8452C30.3311 39.5654 29.9575 39.4531 29.8257 39.2578C29.7378 39.126 29.7378 38.916 29.7378 38.8184V36.3232H34.5674C36.2153 36.3232 37.5513 34.834 37.5513 33.0078V11.4844C37.5513 9.65332 36.2109 8.16895 34.5674 8.16895H3.54199C1.89404 8.16895 0.558105 9.6582 0.558105 11.4844V33.0029C0.558105 34.834 1.89844 36.3184 3.54199 36.3184H28.0283V38.8184C28.0283 39.0527 28.0283 39.7607 28.4634 40.4004C28.9424 41.1035 29.7422 41.46 30.8452 41.46H44.3892V40.5127C44.3892 37.8955 42.4731 35.7666 40.1177 35.7666ZM3.54199 34.4287C2.83447 34.4287 2.26318 33.7891 2.26318 33.0078V11.4844C2.26318 10.6982 2.83887 10.0635 3.54199 10.0635H34.563C35.2705 10.0635 35.8418 10.7031 35.8418 11.4844V33.0029C35.8418 33.7891 35.2661 34.4238 34.563 34.4238H3.54199V34.4287ZM40.1177 39.5654H37.6963C38.0478 38.457 39.0015 37.6611 40.1177 37.6611C41.2339 37.6611 42.1875 38.457 42.5391 39.5654H40.1177Z" fill="#005BFF"/>
<path d="M29.4785 16.084H20.2676C20.0303 16.084 19.8413 16.2939 19.8413 16.5576C19.8413 16.8213 20.0303 17.0312 20.2676 17.0312H29.4829C29.7202 17.0312 29.9092 16.8213 29.9092 16.5576C29.9092 16.2939 29.7158 16.084 29.4785 16.084Z" fill="#005BFF"/>
<path d="M29.4785 19.6631H20.2676C20.0303 19.6631 19.8413 19.873 19.8413 20.1367C19.8413 20.4004 20.0303 20.6104 20.2676 20.6104H29.4829C29.7202 20.6104 29.9092 20.4004 29.9092 20.1367C29.9092 19.873 29.7158 19.6631 29.4785 19.6631ZM29.4785 23.2471H23.0801C22.8428 23.2471 22.6538 23.457 22.6538 23.7207C22.6538 23.9844 22.8428 24.1943 23.0801 24.1943H29.4785C29.7158 24.1943 29.9048 23.9844 29.9048 23.7207C29.9048 23.457 29.7158 23.2471 29.4785 23.2471Z" fill="#06F3FF"/>
<path d="M29.4785 26.8262H23.2954C23.0581 26.8262 22.8691 27.0361 22.8691 27.2998C22.8691 27.5635 23.0581 27.7734 23.2954 27.7734H29.4785C29.7158 27.7734 29.9048 27.5635 29.9048 27.2998C29.9048 27.0361 29.7158 26.8262 29.4785 26.8262Z" fill="#005BFF"/>
<path d="M21.4425 18.9091H22.7699L24.1719 22.3295H24.2315L25.6335 18.9091H26.9609V24H25.9169V20.6864H25.8746L24.5572 23.9751H23.8462L22.5288 20.674H22.4865V24H21.4425V18.9091ZM29.6773 24.0696C29.326 24.0696 29.0128 24.005 28.7377 23.8757C28.4642 23.7464 28.2471 23.5683 28.0864 23.3413C27.9256 23.1142 27.8419 22.854 27.8353 22.5607H28.8794C28.891 22.7579 28.9738 22.9179 29.1279 23.0405C29.282 23.1631 29.4652 23.2244 29.6773 23.2244C29.8463 23.2244 29.9955 23.1871 30.1247 23.1126C30.2557 23.0363 30.3576 22.9311 30.4305 22.7969C30.5051 22.661 30.5423 22.5052 30.5423 22.3295C30.5423 22.1506 30.5042 21.9931 30.428 21.8572C30.3534 21.7214 30.2499 21.6153 30.1173 21.5391C29.9847 21.4628 29.8331 21.4239 29.6624 21.4222C29.5132 21.4222 29.3682 21.4529 29.2274 21.5142C29.0882 21.5755 28.9796 21.6592 28.9017 21.7653L27.9447 21.5938L28.1858 18.9091H31.298V19.7891H29.0732L28.9415 21.0643H28.9713C29.0608 20.9383 29.1959 20.8339 29.3765 20.7511C29.5571 20.6682 29.7593 20.6268 29.983 20.6268C30.2896 20.6268 30.5631 20.6989 30.8034 20.843C31.0436 20.9872 31.2334 21.1853 31.3726 21.4371C31.5118 21.6874 31.5806 21.9757 31.5789 22.3022C31.5806 22.6452 31.501 22.9502 31.3403 23.217C31.1812 23.4821 30.9583 23.6909 30.6716 23.8434C30.3866 23.9942 30.0551 24.0696 29.6773 24.0696Z" fill="#222222"/>
</svg>
